<svg xmlns="http://www.w3.org/2000/svg" viewBox="0 0 48.34 55.04"><defs><style>.cls-1{fill:#ff0107;}.cls-2{fill:none;}</style></defs><g id="Layer_2" data-name="Layer 2"><g id="Layer_1-2" data-name="Layer 1"><path class="cls-1" d="M25,19.55c2.77-1.55,8-4.45,10.68-6L42,17l6.33-3.53L23.41,0,0,13.07c8.07,4.35,16.85,9.1,24.93,13.44,0,0,6.36-3.55,6.39-3.57ZM13.31,13.13,23.9,7.22l4.91,2.64-10.68,6c-.79-.42-4.08-2.19-4.91-2.65Z"/><path class="cls-1" d="M23,47.37V55C16.37,51.4,6.61,46,0,42.35V15.84c7.26,4,15.72,8.68,23,12.69V35.4C17.78,32.54,11.07,28.83,5.87,26v2.37c2.86,1.58,8,4.45,10.89,6v7l-10.89-6v2.62Z"/><path class="cls-1" d="M48.34,41.47v-26L41.7,19.26V38.12c-.48.3-1.88,1-2.38,1.36V20.62l-5.79,3.31V42.78c-.5.31-1.86,1-2.38,1.36V25.28c-1.09.64-5.46,3.11-6.47,3.7V55"/><polygon class="cls-2" points="23.41 0 48.34 13.44 24.96 26.49 0 13.07 23.41 0"/><polygon class="cls-2" points="0 15.84 0 42.35 22.98 55.04 22.98 28.53 0 15.84"/><polygon class="cls-2" points="24.68 28.98 24.68 54.97 48.34 41.47 48.34 15.47 24.68 28.98"/></g></g></svg>